<svg xmlns="http://www.w3.org/2000/svg" viewBox="0 0 100 110.9"><title>user</title><path d="M0,110.9H100s-.3-18.1-4.9-22.6-7.4-7.5-25.4-13.4A3.3,3.3,0,0,1,67.6,73l-1.2-2.8a1.8,1.8,0,0,0-1.6-1H62.5l.2-6.9.3-2.5,1.3-5.5h0A3.8,3.8,0,0,0,67.8,52c1-2.6,2.4-6.7,2.2-10a3,3,0,0,0-1.1-2.3l-.3-.2.5-2.5s4.5-13.6-3-21.5a24.2,24.2,0,0,0-7-5.3,9.3,9.3,0,0,0-5.2-1.5H50.8a2,2,0,0,1-1.9-1.2L45.2,0S35.8,3.9,33.8,11.6l-.4,1.8a3.4,3.4,0,0,1-2.5-4.7s-2,4.3-1,7.8c0,0-3.6,4.3-3.6,6.5h1.2S26.3,33,28,37.2l.5,2.1h0a1.8,1.8,0,0,0-1.4,1.9c0,3.7.5,13.2,4.9,13.3L33.2,61l.5,3.4.7,4.8H32.6a2,2,0,0,0-1.7,1.2,18.3,18.3,0,0,1-1.4,2.8c-2.4,3.7-22,9.1-25,13.2S-.2,99.7,0,110.9Z" fill="#00b9ff"/></svg>